<svg enable-background="new 0 0 409.9 145.4" viewBox="0 0 409.9 145.4" xml:space="preserve" xmlns="http://www.w3.org/2000/svg"><path clip-rule="evenodd" d="m409.9 68.5h-13.8v53.9h13.8zm-167.2 0h-13.9v53.9h13.9zm-16 46.9h-1.5l-1.1-.1-.8-.2-.4-.2-.2-.5-.1-1-.1-1.4-.1-2v-23.7h3.7v-7h-3.7v-6.9h-13.4v6.9h-2.9v7h2.9v22.4 3l.1 2.4.1 1.8.2 1.1.2.9.4.8.5.8.7.7.8.6.9.5.9.4.9.2 1.2.2 1.4.1 1.8.1h2.1 5.4v-6.9m-115.4-37.1h-11.5l-.8 4.7-.7 4.5-.5 4.3-.5 4.1-.3 4-.2 3.8-.3-2.5-2.5-22.9h-11.2l-1.6 13-.5 4.7-.4 3.7-.2 2.5-.2 1.4-2.1-18.1-.4-3.6-.3-2.4-.1-1.2h-11.7l5.7 44.2h14.6l1.5-9.6.4-3 .4-2.9.3-3 .1-.4.2-2.5.6 5.1.6 4.7.5 4.2.6 3.8.4 3.4h14.7l2.3-18.9zm-79.9-9.8h-11.7v24.3l-7.8-24.3h-11.8v53.9h11.8v-24.4l7.3 24.5h12.2v-24.5-5.1z" fill="#fff" fill-rule="evenodd"/><path clip-rule="evenodd" d="m270.3 50.8-31.4-27.8-36.5 3.7-14.2 24.1zm-33.8-29.9-6.9-6-21.9 3-.3.5-17.3 2.3-12.1 7 24.7-2.7 2.8-3.4-1.7 2.8zm-35.6 6.3-26.8 2.8-35.7 20.8h43.6z" fill="#d1d2d3" fill-rule="evenodd"/><path clip-rule="evenodd" d="m274.6 41.5-30.4-31.7-46.9 6.2-20 25.5zm-32.9-34.2-7-7.3-29 5.2-6.4 8.2zm-38.5-1.3-21.6 3.9-14.2 8.3 27.9-4zm-10.4 10.8-29.7 3.9-35.3 20.8h41.2z" fill="#f48022" fill-rule="evenodd"/><text font-family="'Calibri'" font-size="9.96" transform="translate(209.5862 18.9104)"></text><g fill="#fff"><text font-family="'Calibri'" font-size="9.96" transform="translate(210.0117 79.9949)"></text><text font-family="'Calibri'" font-size="9.96" transform="translate(118.7502 125.3308)"></text><path d="m2.1 132.6v12.5h-1.2v-12.5z"/><path d="m16.3 132.6 7.3 10.6v-10.6h1.2v12.5h-1.3l-7.3-10.6v10.6h-1.2v-12.5z"/><path d="m45.6 132.6v1h-6.8v4.5h6v1h-6v6h-1.2v-12.5z"/><path d="m63.1 132.6c.5 0 1 .1 1.5.2s.9.3 1.2.6.6.6.8 1 .3.9.3 1.5c0 .8-.2 1.5-.6 2.1s-1 1-1.8 1.1c.4.1.7.2 1 .3s.5.4.7.6.3.5.4.9.1.7.1 1v.8c0 .3 0 .6.1.9 0 .3.1.6.2.9s.2.5.3.6h-1.3c-.1-.1-.1-.3-.2-.4 0-.2-.1-.3-.1-.5s0-.4 0-.5 0-.3 0-.5c0-.4-.1-.9-.1-1.3s-.2-.8-.3-1.2c-.2-.3-.4-.6-.7-.8s-.8-.3-1.3-.3h-4.5v5.6h-1.2v-12.5h5.5zm0 5.9c.4 0 .7-.1 1-.2s.6-.3.9-.5c.2-.2.4-.5.6-.8s.2-.6.2-1c0-.8-.2-1.4-.7-1.8-.4-.4-1.1-.7-2-.7h-4.5v4.9h4.5z"/><path d="m84.4 132.6 4.9 12.5h-1.3l-1.5-3.9h-5.7l-1.5 3.9h-1.3l5-12.5zm1.7 7.6-2.4-6.4-2.5 6.4z"/><path d="m101.6 142.6c.2.4.5.8.9 1 .4.3.8.4 1.3.6.5.1 1 .2 1.6.2.3 0 .7 0 1.1-.1s.7-.2 1.1-.4c.3-.2.6-.5.8-.8s.3-.7.3-1.2c0-.4-.1-.7-.2-.9-.2-.3-.4-.5-.6-.7s-.5-.3-.8-.4-.6-.2-.9-.3l-2.8-.7c-.4-.1-.7-.2-1.1-.4-.3-.1-.6-.3-.9-.6-.3-.2-.5-.5-.6-.9-.2-.3-.2-.8-.2-1.2 0-.3.1-.7.2-1.1s.3-.8.7-1.2c.3-.4.8-.7 1.3-.9s1.3-.4 2.2-.4c.6 0 1.2.1 1.8.2s1.1.4 1.5.7.8.7 1 1.2c.3.5.4 1.1.4 1.7h-1.2c0-.5-.1-.9-.3-1.3s-.4-.7-.8-.9c-.3-.2-.7-.4-1.1-.5s-.8-.2-1.3-.2c-.4 0-.8 0-1.2.1s-.7.2-1 .4-.5.4-.7.8c-.2.3-.3.7-.3 1.2 0 .3 0 .5.1.8.1.2.2.4.4.6s.4.3.6.4.5.2.7.2l3.1.8c.4.1.9.3 1.3.4s.7.4 1 .6.5.6.7.9.3.8.3 1.3v.6c0 .2-.1.5-.2.7s-.3.5-.5.8-.5.5-.8.7c-.4.2-.8.4-1.3.5s-1.2.2-1.9.2-1.4-.1-2.1-.3c-.6-.2-1.2-.4-1.6-.8s-.8-.8-1-1.4c-.2-.5-.3-1.2-.3-2h1.2c-.2 1-.1 1.6.1 2z"/><path d="m130.7 132.6v1h-4.4v11.5h-1.2v-11.5h-4.4v-1z"/><path d="m147.9 132.6c.5 0 1 .1 1.5.2s.9.3 1.2.6.6.6.8 1 .3.9.3 1.5c0 .8-.2 1.5-.6 2.1s-1 1-1.8 1.1c.4.1.7.2 1 .3s.5.4.7.6.3.5.4.9.1.7.1 1v.8c0 .3 0 .6.1.9 0 .3.1.6.2.9s.2.5.3.6h-1.3c-.1-.1-.1-.3-.2-.4 0-.2-.1-.3-.1-.5s0-.4 0-.5 0-.3 0-.5c0-.4-.1-.9-.1-1.3s-.2-.8-.3-1.2c-.2-.3-.4-.6-.7-.8s-.8-.3-1.3-.3h-4.5v5.6h-1.2v-12.5h5.5zm0 5.9c.4 0 .7-.1 1-.2s.6-.3.9-.5c.2-.2.4-.5.6-.8s.2-.6.2-1c0-.8-.2-1.4-.7-1.8-.4-.4-1.1-.7-2-.7h-4.5v4.9h4.5z"/><path d="m165.3 132.6v7.8c0 .7.1 1.3.2 1.9.2.5.4.9.7 1.2s.7.6 1.2.7 1 .2 1.5.2c.6 0 1.1-.1 1.6-.2s.8-.4 1.2-.7.6-.7.7-1.2.2-1.1.2-1.9v-7.8h1.2v8c0 .6-.1 1.3-.3 1.8-.2.6-.5 1.1-.9 1.5s-.9.8-1.5 1c-.6.3-1.4.4-2.2.4-.9 0-1.6-.1-2.2-.4s-1.1-.6-1.5-1-.7-.9-.9-1.5-.3-1.2-.3-1.8v-8z"/><path d="m195.2 135.1c-.2-.4-.5-.7-.9-1-.3-.3-.7-.5-1.1-.6s-.9-.2-1.3-.2c-.8 0-1.5.2-2.1.5s-1.1.7-1.5 1.3c-.4.5-.7 1.1-.8 1.8-.2.7-.3 1.3-.3 2s.1 1.3.3 2 .5 1.3.8 1.8c.4.5.9.9 1.5 1.3.6.3 1.3.5 2.1.5.6 0 1.1-.1 1.6-.3s.9-.5 1.2-.9.6-.8.8-1.3.3-1 .4-1.6h1.2c-.1.8-.3 1.5-.5 2.1-.3.6-.6 1.1-1.1 1.6-.4.4-1 .8-1.6 1s-1.3.4-2 .4c-1 0-1.8-.2-2.6-.5-.7-.4-1.4-.8-1.9-1.4s-.9-1.3-1.1-2.1-.4-1.6-.4-2.5.1-1.7.4-2.5c.2-.8.6-1.5 1.1-2.1s1.1-1.1 1.9-1.4 1.6-.5 2.6-.5c.6 0 1.2.1 1.7.3.6.2 1.1.4 1.5.8.5.3.8.8 1.2 1.3.3.5.5 1.1.6 1.7h-1.2c-.1-.7-.3-1.2-.5-1.5z"/><path d="m217.8 132.6v1h-4.4v11.5h-1.2v-11.5h-4.4v-1z"/><path d="m230.3 132.6v7.8c0 .7.1 1.3.2 1.9s.4.9.7 1.2.7.6 1.2.7 1 .2 1.5.2c.6 0 1.1-.1 1.6-.2s.8-.4 1.2-.7c.3-.3.6-.7.7-1.2s.2-1.1.2-1.9v-7.8h1.2v8c0 .6-.1 1.3-.3 1.8-.2.6-.5 1.1-.9 1.5s-.9.8-1.5 1c-.6.3-1.4.4-2.2.4-.9 0-1.6-.1-2.2-.4s-1.1-.6-1.5-1-.7-.9-.9-1.5-.3-1.2-.3-1.8v-8z"/><path d="m257.3 132.6c.5 0 1 .1 1.5.2s.9.3 1.2.6.6.6.8 1 .3.9.3 1.5c0 .8-.2 1.5-.6 2.1s-1 1-1.8 1.1c.4.1.7.2 1 .3s.5.4.7.6.3.5.4.9.1.7.1 1v.8s0 .6.1.9c0 .3.1.6.2.9s.2.5.3.6h-1.3c-.1-.1-.1-.3-.2-.4 0-.2-.1-.3-.1-.5s0-.4 0-.5 0-.3 0-.5c0-.4-.1-.9-.1-1.3s-.2-.8-.3-1.2c-.2-.3-.4-.6-.7-.8s-.8-.3-1.3-.3h-4.5v5.6h-1.2v-12.5h5.5zm-.1 5.9c.4 0 .7-.1 1-.2s.6-.3.9-.5c.2-.2.4-.5.6-.8s.2-.6.2-1c0-.8-.2-1.4-.7-1.8s-1.1-.7-2-.7h-4.5v4.9h4.5z"/><path d="m282.3 132.6v1h-7.5v4.5h7v1h-7v5h7.6v1h-8.7v-12.5z"/><path d="m319.3 145.1-.2-2.3c-.2.4-.5.8-.8 1.2-.3.3-.7.6-1 .8-.4.2-.8.4-1.2.4s-.9.1-1.3.1c-1 0-1.8-.2-2.6-.5-.7-.4-1.4-.8-1.9-1.4s-.9-1.3-1.1-2.1-.4-1.6-.4-2.5.1-1.7.4-2.5c.2-.8.6-1.5 1.1-2.1s1.1-1.1 1.9-1.4c.7-.4 1.6-.5 2.6-.5.7 0 1.3.1 1.9.3s1.1.4 1.6.8.8.8 1.2 1.3c.3.5.5 1.1.7 1.8h-1.2c0-.4-.2-.7-.4-1.1s-.5-.7-.8-1-.8-.6-1.2-.7c-.5-.2-1-.3-1.6-.3-.8 0-1.5.2-2.1.5s-1.1.7-1.5 1.3c-.4.5-.7 1.1-.8 1.8-.2.7-.3 1.3-.3 2s.1 1.3.3 2 .5 1.3.8 1.8c.4.5.9.9 1.5 1.3.6.3 1.3.5 2.1.5.7 0 1.3-.1 1.9-.3.5-.2 1-.5 1.4-1 .4-.4.7-.9.8-1.5.2-.6.3-1.2.3-1.8h-4.3v-1h5.3v6.4h-1.1z"/><path d="m338.5 132.6c.5 0 1 .1 1.5.2s.9.3 1.2.6.6.6.8 1 .3.9.3 1.5c0 .8-.2 1.5-.6 2.1s-1 1-1.8 1.1c.4.1.7.2 1 .3s.5.4.7.6.3.5.4.9.1.7.1 1v.8s0 .6.1.9.1.6.2.9.2.5.3.6h-1.3c-.1-.1-.1-.3-.2-.4 0-.2-.1-.3-.1-.5s0-.4 0-.5 0-.3 0-.5c0-.4-.1-.9-.1-1.3s-.2-.8-.3-1.2-.4-.6-.7-.8-.8-.3-1.3-.3h-4.7v5.6h-1.2v-12.5h5.7zm0 5.9c.4 0 .7-.1 1-.2s.6-.3.9-.5c.2-.2.4-.5.6-.8s.2-.6.2-1c0-.8-.2-1.4-.7-1.8s-1.1-.7-2-.7h-4.5v4.9h4.5z"/><path d="m354.5 136.4c.2-.8.6-1.5 1.1-2.1s1.1-1.1 1.9-1.4c.7-.4 1.6-.5 2.6-.5s1.8.2 2.6.5c.7.4 1.4.8 1.8 1.4s.9 1.3 1.1 2.1.4 1.6.4 2.5-.1 1.7-.4 2.5c-.2.8-.6 1.5-1.1 2.1s-1.1 1.1-1.8 1.4c-.7.4-1.6.5-2.6.5s-1.8-.2-2.6-.5c-.7-.4-1.4-.8-1.9-1.4s-.9-1.3-1.1-2.1-.4-1.6-.4-2.5.2-1.8.4-2.5zm1.1 4.4c.2.7.5 1.3.8 1.8.4.5.9.9 1.5 1.3.6.3 1.3.5 2.1.5s1.5-.2 2.1-.5 1.1-.7 1.5-1.3c.4-.5.7-1.1.8-1.8.2-.7.3-1.3.3-2s-.1-1.4-.3-2c-.2-.7-.5-1.2-.8-1.8-.4-.5-.9-.9-1.5-1.3-.6-.3-1.3-.5-2.1-.5s-1.5.2-2.1.5-1.1.7-1.5 1.3c-.4.5-.7 1.1-.8 1.8-.2.7-.3 1.3-.3 2s.1 1.4.3 2z"/><path d="m379.2 132.6v7.8c0 .7.1 1.3.2 1.9s.4.9.7 1.2.7.6 1.2.7 1 .2 1.5.2c.6 0 1.1-.1 1.6-.2s.8-.4 1.2-.7c.3-.3.6-.7.7-1.2s.2-1.1.2-1.9v-7.8h1.2v8c0 .6-.1 1.3-.3 1.8-.2.6-.5 1.1-.9 1.5s-.9.8-1.5 1c-.6.3-1.4.4-2.2.4-.9 0-1.6-.1-2.2-.4s-1.1-.6-1.5-1-.7-.9-.9-1.5-.3-1.2-.3-1.8v-8z"/><path d="m406 132.6c.6 0 1.1.1 1.5.2.5.2.8.4 1.2.7.3.3.6.7.8 1.1s.3.9.3 1.5-.1 1.1-.3 1.5-.4.8-.8 1.1-.7.5-1.2.7-1 .2-1.5.2h-4.4v5.4h-1.2v-12.5h5.6zm-.2 6.1c.8 0 1.5-.2 2-.6s.8-1.1.8-1.9c0-.9-.3-1.5-.8-1.9s-1.2-.6-2-.6h-4.1v5.1h4.1z"/><path d="m46.3 101.6v9.1c0 2.7.9 4.3 2.6 4.3 2 0 2.6-1.6 2.6-4.3v-5.8h12.4v6.6c0 8.5-6.3 11.7-15 11.7-7.9 0-15-3.6-15-11.9v-21.5c0-8.1 5.3-12.6 15-12.6 7.9 0 15 3 15 12.6v11.7h-17.6zm5.2-7.5v-6.1c0-1.7-.9-2.7-2.6-2.7s-2.6.9-2.6 2.7v6.1z"/><path d="m129.8 88.5c0-1.6-.6-3.1-2.6-3.1s-2.6 1.5-2.6 3.1v23.3c0 1.6.6 3.1 2.6 3.1s2.6-1.5 2.6-3.1v-7h12.4v6.6c0 8.5-6.3 11.7-15 11.7-9.2 0-14.9-3.8-14.9-12.4v-20.9c0-7.4 5.5-12.5 14.9-12.5 8 0 15 3 15 12.6v3.8h-12.4z"/><path d="m161.6 117.3h-.2c-1.5 3.2-3.8 5.8-8.7 5.8-5.4 0-8.7-3.3-8.7-9.2v-6.7c0-11.7 17.5-10.3 17.5-18.6 0-1.8-.5-3.3-2.6-3.3s-2.6 1.5-2.6 3.3v4.9h-12.4v-4.1c0-9 7.5-12.2 15-12.2 7.4 0 15 3.2 15 12.2v33.1h-12.4v-5.2zm-5.1-6.2c0 1.6 1.1 2.3 2.3 2.3 2.6 0 2.9-1.7 2.9-5.7v-7.8c-2.4 1.7-5.2 2.7-5.2 6.3z"/><path d="m192.9 93.6v-4.9c0-1.9-.6-3.4-2.6-3.4s-2.6 1.5-2.6 3.4c0 7.7 17.3 6.3 17.3 20.8 0 8.8-5.3 13.5-15.7 13.5-7.9 0-14-3.1-14-11.1v-7.1h12.4v6.7c0 1.9.6 3.4 2.6 3.4s2.6-1.5 2.6-3.4c0-10.6-17.5-7.4-17.5-21.9 0-8.9 6.3-12.4 14.5-12.4 9.4 0 15.4 3.7 15.4 11.2v5.2z"/><path d="m258.3 101.6v9.1c0 2.7.9 4.3 2.6 4.3 2 0 2.6-1.6 2.6-4.3v-5.8h12.4v6.6c0 8.5-6.3 11.7-15 11.7-7.9 0-15-3.6-15-11.9v-21.5c0-8.1 5.3-12.6 15-12.6 7.9 0 15 3 15 12.6v11.7h-17.6zm5.2-7.5v-6.1c0-1.7-.9-2.7-2.6-2.7s-2.6.9-2.6 2.7v6.1z"/><path d="m359.8 111.2c0 8.3-7 11.9-15 11.9-7.9 0-15-3.6-15-11.9v-21.4c0-8.1 5.3-12.6 15-12.6 9.6 0 15 4.5 15 12.6zm-17.5.6c0 1.6.6 3.1 2.6 3.1s2.6-1.5 2.6-3.1v-23.3c0-1.6-.6-3.1-2.6-3.1s-2.6 1.5-2.6 3.1z"/><path d="m380.8 117.3h-.2c-1.5 3.2-3.8 5.8-8.7 5.8-5.4 0-8.7-3.3-8.7-9.2v-6.7c0-11.7 17.5-10.3 17.5-18.6 0-1.8-.5-3.3-2.6-3.3-2 0-2.6 1.5-2.6 3.3v4.9h-12.4v-4.1c0-9 7.5-12.2 15-12.2 7.4 0 15 3.2 15 12.2v33.1h-12.4v-5.2zm-5.1-6.2c0 1.6 1.1 2.3 2.3 2.3 2.6 0 2.9-1.7 2.9-5.7v-7.8c-2.4 1.7-5.2 2.7-5.2 6.3z"/><path d="m326.8 100.3v7.4c0 10.4-5.6 15.4-16.5 15.4-8.6 0-16.4-3.5-16.4-16.3v-25.3c0-12.8 7.8-16.3 16.4-16.3 9.5 0 16.5 2.8 16.5 14.9v12.1h-13v-13.7c0-2.3-.7-4.4-3.5-4.4-2.7 0-3.4 2.1-3.4 4.4v31.3c0 2.3.7 4.4 3.4 4.4 2.8 0 3.5-2.1 3.5-4.4l.1-9.5z"/></g></svg>